<svg version="1.1" id="Layer_1" xmlns="http://www.w3.org/2000/svg" xmlns:xlink="http://www.w3.org/1999/xlink" x="0px" y="0px"
	 width="100%" viewBox="0 0 500 500" enable-background="new 0 0 500 500" xml:space="preserve">
<path fill="#FAFAFA" opacity="1.000000" stroke="none" 
	d="
M244.000000,501.000000 
	C162.666687,501.000000 81.833374,501.000000 1.000043,501.000000 
	C1.000029,334.333405 1.000029,167.666779 1.000014,1.000133 
	C167.666565,1.000089 334.333130,1.000089 500.999756,1.000044 
	C500.999847,167.666519 500.999847,334.333038 500.999939,500.999786 
	C415.500000,501.000000 330.000000,501.000000 244.000000,501.000000 
M190.695007,290.262939 
	C204.158813,282.122131 209.352921,271.209503 206.854828,256.311829 
	C204.597305,242.848846 196.260254,233.320862 181.240143,231.420212 
	C163.391312,229.161591 145.255081,229.174347 127.287857,228.205261 
	C127.287857,266.960663 127.287857,304.301666 127.287857,341.451050 
	C135.245468,341.451050 142.820251,341.451050 150.846466,341.451050 
	C150.846466,326.709381 150.846466,312.295929 150.846466,297.490234 
	C152.599991,297.490234 153.921783,297.675110 155.174149,297.458527 
	C160.892624,296.469635 164.056198,298.840332 166.650406,304.081696 
	C172.394943,315.688171 178.845612,326.949524 185.190002,338.249603 
	C186.023926,339.734894 187.883301,341.568420 189.335052,341.629028 
	C197.255722,341.959930 205.197464,341.786499 214.167587,341.786499 
	C204.257996,325.186218 194.790512,309.326569 185.158081,293.190582 
	C187.160034,292.161011 188.611298,291.414642 190.695007,290.262939 
M76.090500,337.679596 
	C90.085579,332.217255 99.122971,322.200897 103.164291,307.787140 
	C107.440002,292.537354 107.459381,277.188538 103.128815,261.966461 
	C98.952477,247.286499 89.479179,237.484222 74.859932,232.843765 
	C56.522171,227.022980 37.691341,229.764557 19.137054,229.074203 
	C19.137054,266.963654 19.137054,304.208832 19.137054,341.787048 
	C28.708305,341.787048 38.036205,342.289856 47.284420,341.646729 
	C56.680897,340.993317 65.998795,339.209839 76.090500,337.679596 
M284.599426,229.100296 
	C282.814209,229.100296 281.028992,229.100296 279.219055,229.100296 
	C279.219055,266.879852 279.219055,304.233856 279.219055,341.477234 
	C287.157501,341.477234 294.730988,341.477234 302.922302,341.477234 
	C302.922302,326.125488 302.922302,311.080963 302.922302,295.774384 
	C314.332794,295.774384 325.118073,295.774384 336.150909,295.774384 
	C336.150909,289.906128 336.150909,284.319031 336.150909,278.295166 
	C325.012024,278.295166 314.110962,278.295166 303.197388,278.295166 
	C303.197388,267.490143 303.197388,257.126434 303.197388,246.374557 
	C316.180206,246.374557 328.785522,246.374557 341.597229,246.374557 
	C342.435791,240.524567 343.222473,235.036514 344.073395,229.100296 
	C324.165405,229.100296 304.870972,229.100296 284.599426,229.100296 
M434.657806,232.273804 
	C435.804596,228.010086 432.621399,229.131912 430.593597,229.128845 
	C405.107971,229.090469 379.622284,229.099106 354.136597,229.117340 
	C352.875793,229.118240 351.615082,229.317673 350.432068,229.418076 
	C350.432068,235.714432 350.432068,241.634171 350.432068,248.023956 
	C360.284363,248.023956 369.863708,248.023956 380.111115,248.023956 
	C380.111115,279.495422 380.111115,310.496979 380.111115,341.479004 
	C388.374542,341.479004 395.952606,341.479004 403.990784,341.479004 
	C403.990784,310.275696 403.990784,279.379639 403.990784,248.052185 
	C411.739349,248.052185 419.046387,247.735657 426.309601,248.163193 
	C431.170166,248.449326 433.350281,247.125854 433.219208,242.011536 
	C433.143738,239.065704 434.023041,236.095413 434.657806,232.273804 
M253.037567,268.500000 
	C253.037567,255.447037 253.037567,242.394073 253.037567,229.339462 
	C244.571411,229.339462 236.987625,229.339462 229.373688,229.339462 
	C229.373688,266.892944 229.373688,304.206482 229.373688,341.498962 
	C237.290222,341.498962 244.866333,341.498962 253.037567,341.498962 
	C253.037567,317.309174 253.037567,293.404602 253.037567,268.500000 
M439.294250,310.283844 
	C439.133972,312.101624 438.842438,313.918793 438.834442,315.737244 
	C438.778290,328.491058 448.941711,338.631531 461.589020,338.503113 
	C474.166656,338.375397 484.249237,327.908569 483.981903,315.256836 
	C483.752350,304.394653 475.947601,295.401215 464.985931,293.367767 
	C454.103333,291.349030 444.022156,297.737152 439.294250,310.283844 
M144.712555,157.885620 
	C143.552460,158.186859 141.450623,158.361038 141.389969,158.810593 
	C141.071945,161.167892 141.270798,163.594910 141.290054,165.997711 
	C142.608505,165.772217 144.059433,165.826035 145.223038,165.274094 
	C151.033218,162.518066 156.726547,162.314392 162.360016,165.646255 
	C168.825516,169.470230 172.128891,176.990280 170.436249,183.940033 
	C168.382751,192.371353 161.906815,197.601959 152.761627,197.801971 
	C144.277985,197.987503 135.785858,197.773575 127.300957,197.927582 
	C126.163536,197.948242 125.046539,199.094223 123.920090,199.719086 
	C125.013168,200.457733 126.096359,201.819489 127.200882,201.837021 
	C136.517105,201.984909 145.867966,202.356506 155.148727,201.748993 
	C167.924881,200.912704 176.686966,189.589569 174.891403,177.190414 
	C173.117493,164.940781 161.397034,157.039276 148.789597,159.450928 
	C147.681992,159.662811 146.380875,158.862991 144.712555,157.885620 
M138.992523,146.067581 
	C138.516968,144.789536 138.413422,143.067749 137.504929,142.306137 
	C131.997971,137.689468 125.632462,135.896149 118.507599,137.424591 
	C110.224251,139.201538 104.949890,144.597916 101.996422,151.256470 
	C98.191238,151.256470 95.039055,150.985672 91.977966,151.395432 
	C90.822418,151.550095 89.877518,153.278442 88.836594,154.289444 
	C90.068359,154.763016 91.266190,155.483093 92.539032,155.658371 
	C95.120483,156.013855 97.997017,155.457458 100.287735,156.402313 
	C103.658104,157.792511 104.838898,157.107681 106.018204,153.744049 
	C110.366089,141.342880 123.721375,137.399139 134.356903,145.056198 
	C135.542252,145.909592 137.181046,146.133179 138.992523,146.067581 
M95.497612,201.932251 
	C100.161636,201.931519 104.833160,202.077332 109.485046,201.839325 
	C110.852722,201.769333 112.164742,200.611618 113.502274,199.952408 
	C112.117188,199.251984 110.737846,197.955994 109.346123,197.942566 
	C94.189468,197.796356 79.030388,197.798111 63.873615,197.937958 
	C62.456894,197.951035 61.051414,199.182632 59.640713,199.848465 
	C61.099136,200.542755 62.547554,201.813080 64.017586,201.838623 
	C74.175430,202.015015 84.337776,201.931946 95.497612,201.932251 
M49.598175,169.988281 
	C57.549088,169.988220 65.502815,170.098846 73.448586,169.896744 
	C75.081398,169.855209 76.684486,168.644821 78.301270,167.973190 
	C76.767075,167.256470 75.260284,166.000259 73.693733,165.920685 
	C68.240623,165.643661 62.766823,165.767517 57.300854,165.752045 
	C52.994144,165.739853 48.674717,165.560013 44.387737,165.850311 
	C42.952698,165.947510 41.600391,167.266449 40.210258,168.026932 
	C41.528072,168.680130 42.786087,169.591812 44.180397,169.914368 
	C45.595589,170.241760 47.145298,169.987701 49.598175,169.988281 
M78.200081,185.942978 
	C79.826279,185.260834 81.452477,184.578690 83.078667,183.896530 
	C81.514351,183.176239 79.963913,181.870499 78.383400,181.833023 
	C69.757507,181.628555 61.122177,181.641190 52.495434,181.827057 
	C51.009583,181.859055 49.549412,183.083405 48.077381,183.756973 
	C49.505524,184.485367 50.919159,185.808701 52.364208,185.843933 
	C60.658077,186.046158 68.959404,185.942841 78.200081,185.942978 
z"/>
<path fill="#030303" opacity="1.000000" stroke="none" 
	d="
M190.378784,290.465607 
	C188.611298,291.414642 187.160034,292.161011 185.158081,293.190582 
	C194.790512,309.326569 204.257996,325.186218 214.167587,341.786499 
	C205.197464,341.786499 197.255722,341.959930 189.335052,341.629028 
	C187.883301,341.568420 186.023926,339.734894 185.190002,338.249603 
	C178.845612,326.949524 172.394943,315.688171 166.650406,304.081696 
	C164.056198,298.840332 160.892624,296.469635 155.174149,297.458527 
	C153.921783,297.675110 152.599991,297.490234 150.846466,297.490234 
	C150.846466,312.295929 150.846466,326.709381 150.846466,341.451050 
	C142.820251,341.451050 135.245468,341.451050 127.287857,341.451050 
	C127.287857,304.301666 127.287857,266.960663 127.287857,228.205261 
	C145.255081,229.174347 163.391312,229.161591 181.240143,231.420212 
	C196.260254,233.320862 204.597305,242.848846 206.854828,256.311829 
	C209.352921,271.209503 204.158813,282.122131 190.378784,290.465607 
M159.426437,280.531097 
	C162.915604,280.332642 166.467514,280.482239 169.881577,279.867004 
	C178.360733,278.339203 182.551636,272.446838 182.490005,262.750519 
	C182.434006,253.941025 178.453140,248.520615 170.106171,247.213806 
	C163.945541,246.249313 157.631897,246.262161 151.209122,245.827560 
	C151.209122,257.869873 151.209122,269.068481 151.209122,280.531189 
	C153.865021,280.531189 156.177536,280.531189 159.426437,280.531097 
z"/>
<path fill="#040404" opacity="1.000000" stroke="none" 
	d="
M75.720802,337.800415 
	C65.998795,339.209839 56.680897,340.993317 47.284420,341.646729 
	C38.036205,342.289856 28.708305,341.787048 19.137054,341.787048 
	C19.137054,304.208832 19.137054,266.963654 19.137054,229.074203 
	C37.691341,229.764557 56.522171,227.022980 74.859932,232.843765 
	C89.479179,237.484222 98.952477,247.286499 103.128815,261.966461 
	C107.459381,277.188538 107.440002,292.537354 103.164291,307.787140 
	C99.122971,322.200897 90.085579,332.217255 75.720802,337.800415 
M75.130234,313.501740 
	C83.646507,296.042633 83.249329,278.202667 76.949547,260.307983 
	C75.005829,254.786774 70.854805,250.317932 65.064377,249.016281 
	C57.928677,247.412201 50.523258,247.007950 43.173439,246.077454 
	C43.173439,272.930023 43.173439,298.450531 43.173439,324.223785 
	C55.004604,324.004639 66.858437,325.343536 75.130234,313.501740 
z"/>
<path fill="#050505" opacity="1.000000" stroke="none" 
	d="
M285.087982,229.100296 
	C304.870972,229.100296 324.165405,229.100296 344.073395,229.100296 
	C343.222473,235.036514 342.435791,240.524567 341.597229,246.374557 
	C328.785522,246.374557 316.180206,246.374557 303.197388,246.374557 
	C303.197388,257.126434 303.197388,267.490143 303.197388,278.295166 
	C314.110962,278.295166 325.012024,278.295166 336.150909,278.295166 
	C336.150909,284.319031 336.150909,289.906128 336.150909,295.774384 
	C325.118073,295.774384 314.332794,295.774384 302.922302,295.774384 
	C302.922302,311.080963 302.922302,326.125488 302.922302,341.477234 
	C294.730988,341.477234 287.157501,341.477234 279.219055,341.477234 
	C279.219055,304.233856 279.219055,266.879852 279.219055,229.100296 
	C281.028992,229.100296 282.814209,229.100296 285.087982,229.100296 
z"/>
<path fill="#040404" opacity="1.000000" stroke="none" 
	d="
M434.565186,232.704971 
	C434.023041,236.095413 433.143738,239.065704 433.219208,242.011536 
	C433.350281,247.125854 431.170166,248.449326 426.309601,248.163193 
	C419.046387,247.735657 411.739349,248.052185 403.990784,248.052185 
	C403.990784,279.379639 403.990784,310.275696 403.990784,341.479004 
	C395.952606,341.479004 388.374542,341.479004 380.111115,341.479004 
	C380.111115,310.496979 380.111115,279.495422 380.111115,248.023956 
	C369.863708,248.023956 360.284363,248.023956 350.432068,248.023956 
	C350.432068,241.634171 350.432068,235.714432 350.432068,229.418076 
	C351.615082,229.317673 352.875793,229.118240 354.136597,229.117340 
	C379.622284,229.099106 405.107971,229.090469 430.593597,229.128845 
	C432.621399,229.131912 435.804596,228.010086 434.565186,232.704971 
z"/>
<path fill="#030303" opacity="1.000000" stroke="none" 
	d="
M253.037567,269.000000 
	C253.037567,293.404602 253.037567,317.309174 253.037567,341.498962 
	C244.866333,341.498962 237.290222,341.498962 229.373688,341.498962 
	C229.373688,304.206482 229.373688,266.892944 229.373688,229.339462 
	C236.987625,229.339462 244.571411,229.339462 253.037567,229.339462 
	C253.037567,242.394073 253.037567,255.447037 253.037567,269.000000 
z"/>
<path fill="#4186F7" opacity="1.000000" stroke="none" 
	d="
M439.420746,309.885681 
	C444.022156,297.737152 454.103333,291.349030 464.985931,293.367767 
	C475.947601,295.401215 483.752350,304.394653 483.981903,315.256836 
	C484.249237,327.908569 474.166656,338.375397 461.589020,338.503113 
	C448.941711,338.631531 438.778290,328.491058 438.834442,315.737244 
	C438.842438,313.918793 439.133972,312.101624 439.420746,309.885681 
z"/>
<path fill="#101010" opacity="1.000000" stroke="none" 
	d="
M144.941101,158.209351 
	C146.380875,158.862991 147.681992,159.662811 148.789597,159.450928 
	C161.397034,157.039276 173.117493,164.940781 174.891403,177.190414 
	C176.686966,189.589569 167.924881,200.912704 155.148727,201.748993 
	C145.867966,202.356506 136.517105,201.984909 127.200882,201.837021 
	C126.096359,201.819489 125.013168,200.457733 123.920090,199.719086 
	C125.046539,199.094223 126.163536,197.948242 127.300957,197.927582 
	C135.785858,197.773575 144.277985,197.987503 152.761627,197.801971 
	C161.906815,197.601959 168.382751,192.371353 170.436249,183.940033 
	C172.128891,176.990280 168.825516,169.470230 162.360016,165.646255 
	C156.726547,162.314392 151.033218,162.518066 145.223038,165.274094 
	C144.059433,165.826035 142.608505,165.772217 141.290054,165.997711 
	C141.270798,163.594910 141.071945,161.167892 141.389969,158.810593 
	C141.450623,158.361038 143.552460,158.186859 144.941101,158.209351 
z"/>
<path fill="#121212" opacity="1.000000" stroke="none" 
	d="
M138.801025,146.358215 
	C137.181046,146.133179 135.542252,145.909592 134.356903,145.056198 
	C123.721375,137.399139 110.366089,141.342880 106.018204,153.744049 
	C104.838898,157.107681 103.658104,157.792511 100.287735,156.402313 
	C97.997017,155.457458 95.120483,156.013855 92.539032,155.658371 
	C91.266190,155.483093 90.068359,154.763016 88.836594,154.289444 
	C89.877518,153.278442 90.822418,151.550095 91.977966,151.395432 
	C95.039055,150.985672 98.191238,151.256470 101.996422,151.256470 
	C104.949890,144.597916 110.224251,139.201538 118.507599,137.424591 
	C125.632462,135.896149 131.997971,137.689468 137.504929,142.306137 
	C138.413422,143.067749 138.516968,144.789536 138.801025,146.358215 
z"/>
<path fill="#0D0D0D" opacity="1.000000" stroke="none" 
	d="
M94.998146,201.932251 
	C84.337776,201.931946 74.175430,202.015015 64.017586,201.838623 
	C62.547554,201.813080 61.099136,200.542755 59.640713,199.848480 
	C61.051414,199.182632 62.456894,197.951035 63.873615,197.937958 
	C79.030388,197.798111 94.189468,197.796356 109.346123,197.942566 
	C110.737846,197.955994 112.117188,199.251984 113.502274,199.952408 
	C112.164742,200.611618 110.852722,201.769333 109.485046,201.839325 
	C104.833160,202.077332 100.161636,201.931519 94.998146,201.932251 
z"/>
<path fill="#0F0F0F" opacity="1.000000" stroke="none" 
	d="
M49.117134,169.988281 
	C47.145298,169.987701 45.595589,170.241760 44.180397,169.914368 
	C42.786087,169.591812 41.528072,168.680130 40.210262,168.026917 
	C41.600391,167.266449 42.952698,165.947510 44.387737,165.850311 
	C48.674717,165.560013 52.994144,165.739853 57.300854,165.752045 
	C62.766823,165.767517 68.240623,165.643661 73.693733,165.920685 
	C75.260284,166.000259 76.767075,167.256470 78.301270,167.973190 
	C76.684486,168.644821 75.081398,169.855209 73.448586,169.896744 
	C65.502815,170.098846 57.549088,169.988220 49.117134,169.988281 
z"/>
<path fill="#0F0F0F" opacity="1.000000" stroke="none" 
	d="
M77.729141,185.943085 
	C68.959404,185.942841 60.658077,186.046158 52.364208,185.843933 
	C50.919159,185.808701 49.505524,184.485367 48.077381,183.756973 
	C49.549412,183.083405 51.009583,181.859055 52.495434,181.827057 
	C61.122177,181.641190 69.757507,181.628555 78.383400,181.833023 
	C79.963913,181.870499 81.514351,183.176239 83.078667,183.896545 
	C81.452477,184.578690 79.826279,185.260834 77.729141,185.943085 
z"/>
<path fill="#F5F5F5" opacity="1.000000" stroke="none" 
	d="
M158.958252,280.531128 
	C156.177536,280.531189 153.865021,280.531189 151.209122,280.531189 
	C151.209122,269.068481 151.209122,257.869873 151.209122,245.827560 
	C157.631897,246.262161 163.945541,246.249313 170.106171,247.213806 
	C178.453140,248.520615 182.434006,253.941025 182.490005,262.750519 
	C182.551636,272.446838 178.360733,278.339203 169.881577,279.867004 
	C166.467514,280.482239 162.915604,280.332642 158.958252,280.531128 
z"/>
<path fill="#F8F8F8" opacity="1.000000" stroke="none" 
	d="
M74.945251,313.819641 
	C66.858437,325.343536 55.004604,324.004639 43.173439,324.223785 
	C43.173439,298.450531 43.173439,272.930023 43.173439,246.077454 
	C50.523258,247.007950 57.928677,247.412201 65.064377,249.016281 
	C70.854805,250.317932 75.005829,254.786774 76.949547,260.307983 
	C83.249329,278.202667 83.646507,296.042633 74.945251,313.819641 
z"/>
</svg>